<?xml version="1.0" encoding="UTF-8"?>
<svg xmlns="http://www.w3.org/2000/svg" width="16" height="16" viewBox="0 0 16 16">
  <g fill="currentColor">
    <path d="M3.5 1A1.5 1.5 0 0 0 2 2.5v3A1.5 1.5 0 0 0 3.5 7h9A1.5 1.5 0 0 0 14 5.5v-3A1.5 1.5 0 0 0 12.5 1zm0 1h9a.5.5 0 0 1 .5.5v3a.5.5 0 0 1-.5.5h-9a.5.5 0 0 1-.5-.5v-3a.5.5 0 0 1 .5-.5"/>
    <path d="M4.75 7.75h6.5v1h-6.5z"/>
    <path d="M3.5 9A1.5 1.5 0 0 0 2 10.5v3A1.5 1.5 0 0 0 3.5 15h9a1.5 1.5 0 0 0 1.5-1.5v-3A1.5 1.5 0 0 0 12.5 9zm0 1h9a.5.5 0 0 1 .5.5v3a.5.5 0 0 1-.5.5h-9a.5.5 0 0 1-.5-.5v-3a.5.5 0 0 1 .5-.5"/>
  </g>
</svg>
